<svg xmlns="http://www.w3.org/2000/svg" viewBox="0 0 96 96" role="img" aria-labelledby="mailru-title">
  <title id="mailru-title">Mail.ru</title>
  <defs>
    <linearGradient id="mailru-bg" x1="18" y1="12" x2="78" y2="84" gradientUnits="userSpaceOnUse">
      <stop offset="0" stop-color="#27a7ff"/>
      <stop offset="1" stop-color="#0069d9"/>
    </linearGradient>
  </defs>
  <rect width="96" height="96" rx="22" fill="url(#mailru-bg)"/>
  <path fill="#fff" d="M48 21.5c15.2 0 26.4 10.8 26.4 25.8 0 11.6-6.1 19.4-14.1 19.4-4 0-6.6-1.7-7.7-4.5-2.4 2.9-6.1 4.5-10.5 4.5-9.3 0-16.3-7.2-16.3-17.4 0-10.5 7.3-18.1 17.3-18.1 4.1 0 7.6 1.4 9.9 4.1l.4-3.1h7.4l-2.6 18.4c-.8 5.8.4 8.2 3.1 8.2 3.9 0 7.2-4.3 7.2-11.5 0-11.5-8.3-19.5-20.6-19.5-12.9 0-22 9.1-22 21.4 0 12.5 8.9 21.1 22.1 21.1 5.4 0 10.2-1.2 14.6-3.8l2.7 6.2c-5 3-11 4.5-17.6 4.5-17 0-29.7-11.7-29.7-28 0-16.2 12.8-27.7 30-27.7Zm-4 36.9c5.4 0 9.2-4.1 9.2-9.9 0-5.4-3.5-9.1-8.8-9.1-5.6 0-9.5 4.2-9.5 10 0 5.3 3.6 9 9.1 9Z"/>
</svg>
